AH00558: apache2: Could not reliably determine the server's fully qualified domain name, using 172.31.0.3. Set the 'ServerName' directive globally to suppress this message
[Wed Oct 07 19:38:35.198540 2020] [mpm_prefork:notice] [pid 1] AH00163: Apache/2.4.38 (Debian) PHP/7.4.1 configured -- resuming normal operations
[Wed Oct 07 19:38:35.198595 2020] [core:notice] [pid 1] AH00094: Command line: 'apache2 -D FOREGROUND'
PHP Fatal error:  Uncaught Error: Call to undefined function trunc() in /var/www/html/apps/webtool/offline/uploadVideoMM.php:114
Stack trace:
#0 {main}
  thrown in /var/www/html/apps/webtool/offline/uploadVideoMM.php on line 114
PHP Fatal error:  Uncaught Error: Call to a member function getRequest() on null in /var/www/html/core/classes/manager.php:705
Stack trace:
#0 /var/www/html/core/classes/manager.php(733): Manager::getRequest()
#1 /var/www/html/core/classes/functions.php(132): Manager::isAjaxCall()
#2 [internal function]: shutdown()
#3 {main}
  thrown in /var/www/html/core/classes/manager.php on line 705
ffmpeg version 4.2.1-static https://johnvansickle.com/ffmpeg/  Copyright (c) 2000-2019 the FFmpeg developers
  built with gcc 6.3.0 (Debian 6.3.0-18+deb9u1) 20170516
  configuration: --enable-gpl --enable-version3 --enable-static --disable-debug --disable-ffplay --disable-indev=sndio --disable-outdev=sndio --cc=gcc-6 --enable-fontconfig --enable-frei0r --enable-gnutls --enable-gmp --enable-libgme --enable-gray --enable-libaom --enable-libfribidi --enable-libass --enable-libvmaf --enable-libfreetype --enable-libmp3lame --enable-libopencore-amrnb --enable-libopencore-amrwb --enable-libopenjpeg --enable-librubberband --enable-libsoxr --enable-libspeex --enable-libsrt --enable-libvorbis --enable-libopus --enable-libtheora --enable-libvidstab --enable-libvo-amrwbenc --enable-libvpx --enable-libwebp --enable-libx264 --enable-libx265 --enable-libxml2 --enable-libdav1d --enable-libxvid --enable-libzvbi --enable-libzimg
  libavutil      56. 31.100 / 56. 31.100
  libavcodec     58. 54.100 / 58. 54.100
  libavformat    58. 29.100 / 58. 29.100
  libavdevice    58.  8.100 / 58.  8.100
  libavfilter     7. 57.100 /  7. 57.100
  libswscale      5.  5.100 /  5.  5.100
  libswresample   3.  5.100 /  3.  5.100
  libpostproc    55.  5.100 / 55.  5.100
Input #0, mov,mp4,m4a,3gp,3g2,mj2, from '/var/www/html/apps/webtool/files/multimodal/Video_Store/full/2bfb129dea9d7d149b79b7bbc96f9d4eb037f8bd.mp4':
  Metadata:
    major_brand     : isom
    minor_version   : 512
    compatible_brands: isomiso2avc1mp41
    encoder         : Lavf58.29.100
  Duration: 00:00:30.09, start: 0.000000, bitrate: 1134 kb/s
    Stream #0:0(und): Video: h264 (High) (avc1 / 0x31637661), yuv420p, 852x480 [SAR 640:639 DAR 16:9], 1000 kb/s, 23.98 fps, 23.98 tbr, 24k tbn, 47.95 tbc (default)
    Metadata:
      handler_name    : ISO Media file produced by Google Inc. Created on: 01/27/2020.
    Stream #0:1(eng): Audio: aac (LC) (mp4a / 0x6134706D), 44100 Hz, stereo, fltp, 128 kb/s (default)
    Metadata:
      handler_name    : ISO Media file produced by Google Inc. Created on: 01/27/2020.
Stream mapping:
  Stream #0:0 -> #0:0 (h264 (native) -> mjpeg (native))
Press [q] to stop, [?] for help
[swscaler @ 0x7257a80] deprecated pixel format used, make sure you did set range correctly
Output #0, image2, to '/tmp/2bfb129dea9d7d149b79b7bbc96f9d4eb037f8bd/img%02d.jpg':
  Metadata:
    major_brand     : isom
    minor_version   : 512
    compatible_brands: isomiso2avc1mp41
    encoder         : Lavf58.29.100
    Stream #0:0(und): Video: mjpeg, yuvj420p(pc), 852x480 [SAR 640:639 DAR 16:9], q=2-31, 200 kb/s, 0.20 fps, 0.20 tbn, 0.20 tbc (default)
    Metadata:
      handler_name    : ISO Media file produced by Google Inc. Created on: 01/27/2020.
      encoder         : Lavc58.54.100 mjpeg
    Side data:
      cpb: bitrate max/min/avg: 0/0/200000 buffer size: 0 vbv_delay: -1
frame=    3 fps=0.0 q=1.6 size=N/A time=00:00:15.00 bitrate=N/A speed=29.9x    frame=    6 fps=0.0 q=1.6 Lsize=N/A time=00:00:30.00 bitrate=N/A speed=32.3x    
video:138kB audio:0kB subtitle:0kB other streams:0kB global headers:0kB muxing overhead: unknown
[Wed Oct 14 21:26:30.059808 2020] [php7:error] [pid 60] [client 172.31.0.1:42576] script '/var/www/html/info.php' not found or unable to stat
ffmpeg version 4.2.1-static https://johnvansickle.com/ffmpeg/  Copyright (c) 2000-2019 the FFmpeg developers
  built with gcc 6.3.0 (Debian 6.3.0-18+deb9u1) 20170516
  configuration: --enable-gpl --enable-version3 --enable-static --disable-debug --disable-ffplay --disable-indev=sndio --disable-outdev=sndio --cc=gcc-6 --enable-fontconfig --enable-frei0r --enable-gnutls --enable-gmp --enable-libgme --enable-gray --enable-libaom --enable-libfribidi --enable-libass --enable-libvmaf --enable-libfreetype --enable-libmp3lame --enable-libopencore-amrnb --enable-libopencore-amrwb --enable-libopenjpeg --enable-librubberband --enable-libsoxr --enable-libspeex --enable-libsrt --enable-libvorbis --enable-libopus --enable-libtheora --enable-libvidstab --enable-libvo-amrwbenc --enable-libvpx --enable-libwebp --enable-libx264 --enable-libx265 --enable-libxml2 --enable-libdav1d --enable-libxvid --enable-libzvbi --enable-libzimg
  libavutil      56. 31.100 / 56. 31.100
  libavcodec     58. 54.100 / 58. 54.100
  libavformat    58. 29.100 / 58. 29.100
  libavdevice    58.  8.100 / 58.  8.100
  libavfilter     7. 57.100 /  7. 57.100
  libswscale      5.  5.100 /  5.  5.100
  libswresample   3.  5.100 /  3.  5.100
  libpostproc    55.  5.100 / 55.  5.100
Input #0, mov,mp4,m4a,3gp,3g2,mj2, from '/var/www/html/apps/webtool/files/multimodal/Video_Store/full/2bfb129dea9d7d149b79b7bbc96f9d4eb037f8bd.mp4':
  Metadata:
    major_brand     : isom
    minor_version   : 512
    compatible_brands: isomiso2avc1mp41
    encoder         : Lavf58.29.100
  Duration: 00:00:30.09, start: 0.000000, bitrate: 1134 kb/s
    Stream #0:0(und): Video: h264 (High) (avc1 / 0x31637661), yuv420p, 852x480 [SAR 640:639 DAR 16:9], 1000 kb/s, 23.98 fps, 23.98 tbr, 24k tbn, 47.95 tbc (default)
    Metadata:
      handler_name    : ISO Media file produced by Google Inc. Created on: 01/27/2020.
    Stream #0:1(eng): Audio: aac (LC) (mp4a / 0x6134706D), 44100 Hz, stereo, fltp, 128 kb/s (default)
    Metadata:
      handler_name    : ISO Media file produced by Google Inc. Created on: 01/27/2020.
Stream mapping:
  Stream #0:0 -> #0:0 (h264 (native) -> mjpeg (native))
Press [q] to stop, [?] for help
[swscaler @ 0x6252a80] deprecated pixel format used, make sure you did set range correctly
Output #0, image2, to '/tmp/2bfb129dea9d7d149b79b7bbc96f9d4eb037f8bd/img%02d.jpg':
  Metadata:
    major_brand     : isom
    minor_version   : 512
    compatible_brands: isomiso2avc1mp41
    encoder         : Lavf58.29.100
    Stream #0:0(und): Video: mjpeg, yuvj420p(pc), 852x480 [SAR 640:639 DAR 16:9], q=2-31, 200 kb/s, 0.20 fps, 0.20 tbn, 0.20 tbc (default)
    Metadata:
      handler_name    : ISO Media file produced by Google Inc. Created on: 01/27/2020.
      encoder         : Lavc58.54.100 mjpeg
    Side data:
      cpb: bitrate max/min/avg: 0/0/200000 buffer size: 0 vbv_delay: -1
frame=    3 fps=0.0 q=1.6 size=N/A time=00:00:15.00 bitrate=N/A speed=29.9x    frame=    6 fps=6.0 q=1.6 size=N/A time=00:00:30.00 bitrate=N/A speed=29.9x    frame=    6 fps=5.9 q=1.6 Lsize=N/A time=00:00:30.00 bitrate=N/A speed=29.7x    
video:138kB audio:0kB subtitle:0kB other streams:0kB global headers:0kB muxing overhead: unknown
[Thu Oct 15 18:03:24.971860 2020] [mpm_prefork:notice] [pid 1] AH00169: caught SIGTERM, shutting down
AH00558: apache2: Could not reliably determine the server's fully qualified domain name, using 172.31.0.3. Set the 'ServerName' directive globally to suppress this message
[Sat Oct 17 20:35:10.635372 2020] [mpm_prefork:notice] [pid 1] AH00163: Apache/2.4.38 (Debian) PHP/7.4.1 configured -- resuming normal operations
[Sat Oct 17 20:35:10.635715 2020] [core:notice] [pid 1] AH00094: Command line: 'apache2 -D FOREGROUND'
